<?xml version="1.0" encoding="utf-8"?>
<!-- Generator: Adobe Illustrator 19.0.0, SVG Export Plug-In . SVG Version: 6.00 Build 0)  -->
<svg version="1.1" id="Layer_1" xmlns="http://www.w3.org/2000/svg" xmlns:xlink="http://www.w3.org/1999/xlink" x="0px" y="0px"
	 viewBox="69 31.2 132.3 139" style="enable-background:new 69 31.2 132.3 139;" xml:space="preserve">
<style type="text/css">
	.st0{fill:#F7B471;}
	.st1{fill:#EC5D6F;}
	.st2{fill:#0086FF;}
	.st3{fill:#FFFFFF;}
	.st4{fill:#FFEC00;}
	.st5{fill:#8CC63F;}
	.st6{fill:#93278F;}
</style>
<path class="st0" d="M135.5,34.6C98.7,34.6,69,64.4,69,101.1c0,36.7,29.8,66.5,66.5,66.5c20.3,0,38.4-9.1,50.6-23.4l-8.9-0.4
	c-2-0.4-3.4-2.5-4.5-4.7c-1.4-2.9-2-6-2-6c-3.5-2.2-0.9-12.5-0.9-12.5c-6.4-6,0.4-11,0.4-11c-1.8-6.5,3.2-7.2,3.2-7.2
	c1.5-6.1,8-6.2,8-6.2c4-6.1,9-1.8,9-1.8c0.1-2.2,2-3.9,3.7-4.8c1.4-0.8,2.7-1,2.8-0.5l4.3,2.4C196.5,59.3,168.9,34.6,135.5,34.6z
	 M113,96.2c0-10.4,7.2-13.5,12.5-14.2c5.6-0.7,10.9,2.1,13,3.4c11.8,7.5,10.7,18.2,10.7,18.2c-0.8,13-16.5,10.5-16.5,10.5
	C113,109.9,113,96.2,113,96.2z"/>
<path class="st0" d="M135.5,34.6C98.7,34.6,69,64.4,69,101.1c0,36.7,29.8,66.5,66.5,66.5c20.3,0,38.4-9.1,50.6-23.4l-8.9-0.4
	c-2-0.4-3.4-2.5-4.5-4.7c-5,5.3-11.8,8.9-18.8,11.3c-2.7,0.9-5.6,1.7-8,3.4c-1.6,1.1-2.9,2.5-4.6,3.2c-1.6,0.7-3.3,0.8-5,0.8
	c-14.3,0.1-28.5-4.1-40.4-12.1c-3.2-2.1-6.3-4.6-8.5-7.7c-2.8-3.9-1.9-10-5.3-13.3c-10.9-10.4-7-26.1-7-32c0-8.1,2.9-15.9,5.8-23.5
	c0.9-2.3,1.8-4.7,3.3-6.6c1.5-1.9,3.6-3.4,5.4-5.1c2.2-2.2,3.9-5,6-7.3c4.5-5,10.7-8,17.2-9.7c6.5-1.7,13.2-2.1,19.9-2.4
	c7.5-0.4,15.3-0.8,22.2,2.1c3,1.2,5.7,3.5,8.9,3.5c11.6,0.3,11.4,8,11.4,8c1.5,10,8.8,7.1,13.5,16.9c2.1,4.4,3.5,9.1,4.4,13.9
	c0.5,2.3,0.8,4.7,1,7.1c1.4-0.8,2.7-1,2.8-0.5l4.3,2.4C196.5,59.3,168.9,34.6,135.5,34.6z"/>
<path class="st1" d="M188.7,68.5c-4.7-9.8-12-6.9-13.5-16.9c0,0,0.2-7.8-11.4-8c-3.2-0.1-6-2.3-8.9-3.5c-7-2.8-14.7-2.5-22.2-2.1
	c-6.7,0.4-13.4,0.8-19.9,2.4c-6.5,1.7-12.7,4.7-17.2,9.7c-2.1,2.3-3.8,5.1-6,7.3c-1.7,1.7-3.8,3.2-5.4,5.1c-1.5,1.9-2.4,4.3-3.3,6.6
	c-2.9,7.6-5.8,15.4-5.8,23.5c0,5.9-3.9,21.6,7,32c3.5,3.3,2.6,9.4,5.3,13.3c2.2,3.1,5.3,5.6,8.5,7.7c11.9,7.9,26.1,12.2,40.4,12.1
	c1.7,0,3.5-0.1,5-0.8c1.7-0.8,3.1-2.2,4.6-3.2c2.4-1.6,5.2-2.4,8-3.4c7-2.4,13.8-6,18.8-11.3c-1.4-2.9-2-6-2-6
	c-3.5-2.2-0.9-12.5-0.9-12.5c-6.4-6,0.4-11,0.4-11c-1.8-6.5,3.2-7.2,3.2-7.2c1.5-6.1,8-6.2,8-6.2c4-6.1,9-1.8,9-1.8
	c0.1-2.2,2-3.9,3.7-4.8c-0.1-2.4-0.5-4.8-1-7.1C192.2,77.6,190.8,72.9,188.7,68.5z M156.4,105.7c-0.8,1.6-2,3-2.7,4.6
	c-1.1,2.9-0.1,6.3-1.4,9.2c-1.8,3.8-6.8,4.6-11,4.8c-4.2,0.2-8.6,0.4-12.5-1.3c-1.9-0.8-3.6-2.1-5.3-3.4c-3.5-2.6-7-5.2-10.4-7.8
	c-1.4-1-2.8-2.1-3.8-3.5c-0.8-1.1-1.3-2.4-1.8-3.7c-2-5.7-3.4-12.4-0.2-17.5c1.4-2.2,3.4-3.8,5.5-5.4c2.7-2.1,5.5-4.2,8.2-6.4
	c1.3-1,2.7-2.1,4.3-2.5c1.8-0.5,3.7-0.1,5.5,0.2c4.5,0.8,9,1.7,13.6,2.5c3.8,0.7,8.3,1.9,9.6,5.5c0.5,1.2,0.5,2.6,0.5,3.9
	c0.1,4.3,0.1,4.3,0.2,8.7c0.1,4,1.2,7,1.2,7C157.3,101.9,157.2,104.1,156.4,105.7z"/>
<path class="st1" d="M188.7,68.5c-4.7-9.8-12-6.9-13.5-16.9c0,0,0.2-7.8-11.4-8c-3.2-0.1-6-2.3-8.9-3.5c-7-2.8-14.7-2.5-22.2-2.1
	c-6.7,0.4-13.4,0.8-19.9,2.4c-6.5,1.7-12.7,4.7-17.2,9.7c-2.1,2.3-3.8,5.1-6,7.3c-1.7,1.7-3.8,3.2-5.4,5.1c-1.5,1.9-2.4,4.3-3.3,6.6
	c-2.9,7.6-5.8,15.4-5.8,23.5c0,5.9-3.9,21.6,7,32c3.5,3.3,2.6,9.4,5.3,13.3c2.2,3.1,5.3,5.6,8.5,7.7c11.9,7.9,26.1,12.2,40.4,12.1
	c1.7,0,3.5-0.1,5-0.8c1.7-0.8,3.1-2.2,4.6-3.2c2.4-1.6,5.2-2.4,8-3.4c7-2.4,13.8-6,18.8-11.3c-1.4-2.9-2-6-2-6
	c-3.5-2.2-0.9-12.5-0.9-12.5c-6.4-6,0.4-11,0.4-11c-1.8-6.5,3.2-7.2,3.2-7.2c1.5-6.1,8-6.2,8-6.2c4-6.1,9-1.8,9-1.8
	c0.1-2.2,2-3.9,3.7-4.8c-0.1-2.4-0.5-4.8-1-7.1C192.2,77.6,190.8,72.9,188.7,68.5z M156.4,105.7c-0.8,1.6-2,3-2.7,4.6
	c-1.1,2.9-0.1,6.3-1.4,9.2c-1.8,3.8-6.8,4.6-11,4.8c-4.2,0.2-8.6,0.4-12.5-1.3c-1.9-0.8-3.6-2.1-5.3-3.4c-3.5-2.6-7-5.2-10.4-7.8
	c-1.4-1-2.8-2.1-3.8-3.5c-0.8-1.1-1.3-2.4-1.8-3.7c-2-5.7-3.4-12.4-0.2-17.5c1.4-2.2,3.4-3.8,5.5-5.4c2.7-2.1,5.5-4.2,8.2-6.4
	c1.3-1,2.7-2.1,4.3-2.5c1.8-0.5,3.7-0.1,5.5,0.2c4.5,0.8,9,1.7,13.6,2.5c3.8,0.7,8.3,1.9,9.6,5.5c0.5,1.2,0.5,2.6,0.5,3.9
	c0.1,4.3,0.1,4.3,0.2,8.7c0.1,4,1.2,7,1.2,7C157.3,101.9,157.2,104.1,156.4,105.7z"/>
<path class="st2" d="M153.4,147.9L153.4,147.9c-0.9,0-1.6-0.7-1.6-1.6v-11.4c0-0.9,0.7-1.6,1.6-1.6l0,0c0.9,0,1.6,0.7,1.6,1.6v11.4
	C155,147.2,154.3,147.9,153.4,147.9z"/>
<path class="st3" d="M139.2,149.9L139.2,149.9c-0.7-0.6-0.7-1.6-0.1-2.3l7.6-8.5c0.6-0.7,1.6-0.7,2.3-0.1v0c0.7,0.6,0.7,1.6,0.1,2.3
	l-7.6,8.5C140.8,150.5,139.8,150.5,139.2,149.9z"/>
<path class="st4" d="M135.8,146L135.8,146c-0.9-0.1-1.5-0.9-1.4-1.8l1.1-11.3c0.1-0.9,0.9-1.5,1.8-1.4l0,0c0.9,0.1,1.5,0.9,1.4,1.8
	l-1.1,11.3C137.4,145.4,136.7,146,135.8,146z"/>
<path class="st5" d="M130.1,155.8L130.1,155.8c-0.8,0.3-1.8-0.1-2.1-0.9l-4.2-10.6c-0.3-0.8,0.1-1.8,0.9-2.1v0
	c0.8-0.3,1.8,0.1,2.1,0.9l4.2,10.6C131.3,154.5,130.9,155.5,130.1,155.8z"/>
<path class="st2" d="M107.5,148.4L107.5,148.4c0.3-0.8,1.3-1.2,2.1-0.9l10.6,4.3c0.8,0.3,1.2,1.3,0.9,2.1v0
	c-0.3,0.8-1.3,1.2-2.1,0.9l-10.6-4.3C107.6,150.2,107.2,149.2,107.5,148.4z"/>
<path class="st4" d="M114.6,135.9L114.6,135.9c0.8-0.4,1.8-0.1,2.2,0.7l5,10.3c0.4,0.8,0.1,1.8-0.7,2.2l0,0
	c-0.8,0.4-1.8,0.1-2.2-0.7l-5-10.3C113.4,137.3,113.8,136.3,114.6,135.9z"/>
<path class="st6" d="M119.5,134.3L119.5,134.3c0.4-0.8,1.4-1.1,2.2-0.7l10.1,5.2c0.8,0.4,1.1,1.4,0.7,2.2l0,0
	c-0.4,0.8-1.4,1.1-2.2,0.7l-10.1-5.2C119.4,136,119.1,135.1,119.5,134.3z"/>
<path class="st2" d="M144.1,134.4L144.1,134.4c-0.6-0.7-0.4-1.7,0.3-2.3l8.9-7.1c0.7-0.6,1.7-0.4,2.3,0.3v0c0.6,0.7,0.4,1.7-0.3,2.3
	l-8.9,7.1C145.7,135.2,144.7,135,144.1,134.4z"/>
<path class="st4" d="M156.9,116.5L156.9,116.5c0.8-0.4,1.8-0.1,2.2,0.7l5,10.3c0.4,0.8,0.1,1.8-0.7,2.2l0,0
	c-0.8,0.4-1.8,0.1-2.2-0.7l-5-10.3C155.7,117.9,156.1,116.9,156.9,116.5z"/>
<path class="st6" d="M150.9,130.2L150.9,130.2c0.4-0.8,1.4-1.1,2.2-0.7l10.1,5.2c0.8,0.4,1.1,1.4,0.7,2.2l0,0
	c-0.4,0.8-1.4,1.1-2.2,0.7l-10.1-5.2C150.8,131.9,150.5,131,150.9,130.2z"/>
<path class="st2" d="M159.1,93.6L159.1,93.6c0.3-0.8,1.3-1.2,2.1-0.9l10.6,4.3c0.8,0.3,1.2,1.3,0.9,2.1v0c-0.3,0.8-1.3,1.2-2.1,0.9
	L160,95.7C159.2,95.3,158.8,94.4,159.1,93.6z"/>
<path class="st4" d="M166.2,81.1L166.2,81.1c0.8-0.4,1.8-0.1,2.2,0.7l5,10.3c0.4,0.8,0.1,1.8-0.7,2.2v0c-0.8,0.4-1.8,0.1-2.2-0.7
	l-5-10.3C165.1,82.4,165.4,81.5,166.2,81.1z"/>
<path class="st6" d="M171.1,79.4L171.1,79.4c0.4-0.8,1.4-1.1,2.2-0.7l10.1,5.2c0.8,0.4,1.1,1.4,0.7,2.2h0c-0.4,0.8-1.4,1.1-2.2,0.7
	l-10.1-5.2C171,81.2,170.7,80.2,171.1,79.4z"/>
<path class="st5" d="M186.3,87.6L186.3,87.6c-0.8,0.3-1.8-0.1-2.1-0.9L180,76.1c-0.3-0.8,0.1-1.8,0.9-2.1l0,0
	c0.8-0.3,1.8,0.1,2.1,0.9l4.2,10.6C187.5,86.4,187.1,87.3,186.3,87.6z"/>
<path class="st4" d="M170.8,67.8L170.8,67.8c0.8-0.4,1.8-0.1,2.2,0.7l5,10.3c0.4,0.8,0.1,1.8-0.7,2.2h0c-0.8,0.4-1.8,0.1-2.2-0.7
	l-5-10.3C169.7,69.1,170,68.1,170.8,67.8z"/>
<path class="st6" d="M175.8,66.1L175.8,66.1c0.4-0.8,1.4-1.1,2.2-0.7l10.1,5.2c0.8,0.4,1.1,1.4,0.7,2.2l0,0
	c-0.4,0.8-1.4,1.1-2.2,0.7l-10.1-5.2C175.7,67.9,175.3,66.9,175.8,66.1z"/>
<path class="st2" d="M153.3,62.1L153.3,62.1c-0.9,0-1.6-0.7-1.6-1.6V49.1c0-0.9,0.7-1.6,1.6-1.6l0,0c0.9,0,1.6,0.7,1.6,1.6v11.4
	C155,61.4,154.2,62.1,153.3,62.1z"/>
<path class="st3" d="M139.1,60.2L139.1,60.2c-0.7-0.6-0.7-1.6-0.1-2.3l7.6-8.5c0.6-0.7,1.6-0.7,2.3-0.1v0c0.7,0.6,0.7,1.6,0.1,2.3
	l-7.6,8.5C140.8,60.7,139.8,60.8,139.1,60.2z"/>
<path class="st4" d="M135.7,56.2L135.7,56.2c-0.9-0.1-1.5-0.9-1.4-1.8l1.1-11.3c0.1-0.9,0.9-1.5,1.8-1.4l0,0
	c0.9,0.1,1.5,0.9,1.4,1.8l-1.1,11.3C137.4,55.6,136.6,56.3,135.7,56.2z"/>
<path class="st5" d="M130,66.1L130,66.1c-0.8,0.3-1.8-0.1-2.1-0.9l-4.2-10.6c-0.3-0.8,0.1-1.8,0.9-2.1h0c0.8-0.3,1.8,0.1,2.1,0.9
	l4.2,10.6C131.3,64.8,130.8,65.7,130,66.1z"/>
<path class="st2" d="M101.3,52L101.3,52c0.3-0.8,1.3-1.2,2.1-0.9l10.6,4.3c0.8,0.3,1.2,1.3,0.9,2.1v0c-0.3,0.8-1.3,1.2-2.1,0.9
	l-10.6-4.3C101.4,53.8,101,52.9,101.3,52z"/>
<path class="st4" d="M114.5,46.2L114.5,46.2c0.8-0.4,1.8-0.1,2.2,0.7l5,10.3c0.4,0.8,0.1,1.8-0.7,2.2h0c-0.8,0.4-1.8,0.1-2.2-0.7
	l-5-10.3C113.4,47.5,113.7,46.6,114.5,46.2z"/>
<path class="st6" d="M119.5,44.5L119.5,44.5c0.4-0.8,1.4-1.1,2.2-0.7l10.1,5.2c0.8,0.4,1.1,1.4,0.7,2.2v0c-0.4,0.8-1.4,1.1-2.2,0.7
	l-10.1-5.2C119.4,46.3,119.1,45.3,119.5,44.5z"/>
<path class="st3" d="M164.5,66.9L164.5,66.9c-0.7-0.6-0.7-1.6-0.1-2.3l7.6-8.5c0.6-0.7,1.6-0.7,2.3-0.1l0,0c0.7,0.6,0.7,1.6,0.1,2.3
	l-7.6,8.5C166.2,67.4,165.2,67.5,164.5,66.9z"/>
<path class="st4" d="M161.2,62.9L161.2,62.9c-0.9-0.1-1.5-0.9-1.4-1.8l1.1-11.3c0.1-0.9,0.9-1.5,1.8-1.4l0,0
	c0.9,0.1,1.5,0.9,1.4,1.8l-1.1,11.3C162.8,62.3,162.1,63,161.2,62.9z"/>
<path class="st5" d="M155.5,72.8L155.5,72.8c-0.8,0.3-1.8-0.1-2.1-0.9l-4.2-10.6c-0.3-0.8,0.1-1.8,0.9-2.1h0
	c0.8-0.3,1.8,0.1,2.1,0.9l4.2,10.6C156.7,71.5,156.3,72.4,155.5,72.8z"/>
<path class="st2" d="M132.9,65.4L132.9,65.4c0.3-0.8,1.3-1.2,2.1-0.9l10.6,4.3c0.8,0.3,1.2,1.3,0.9,2.1l0,0
	c-0.3,0.8-1.3,1.2-2.1,0.9l-10.6-4.3C132.9,67.1,132.5,66.2,132.9,65.4z"/>
<path class="st6" d="M143.4,40.3L143.4,40.3c0.4-0.8,1.4-1.1,2.2-0.7l10.1,5.2c0.8,0.4,1.1,1.4,0.7,2.2v0c-0.4,0.8-1.4,1.1-2.2,0.7
	L144,42.5C143.3,42.1,143,41.1,143.4,40.3z"/>
<path class="st3" d="M179.4,89L179.4,89c-0.7-0.6-0.7-1.6-0.1-2.3l7.6-8.5c0.6-0.7,1.6-0.7,2.3-0.1l0,0c0.7,0.6,0.7,1.6,0.1,2.3
	l-7.6,8.5C181.1,89.5,180.1,89.6,179.4,89z"/>
<path class="st3" d="M161,111.3L161,111.3c-0.7-0.6-0.7-1.6-0.1-2.3l7.6-8.5c0.6-0.7,1.6-0.7,2.3-0.1l0,0c0.7,0.6,0.7,1.6,0.1,2.3
	l-7.6,8.5C162.7,111.9,161.6,111.9,161,111.3z"/>
<path class="st2" d="M150.6,72.3L150.6,72.3c0.3-0.8,1.3-1.2,2.1-0.9l10.6,4.3c0.8,0.3,1.2,1.3,0.9,2.1v0c-0.3,0.8-1.3,1.2-2.1,0.9
	l-10.6-4.3C150.6,74.1,150.2,73.1,150.6,72.3z"/>
<path class="st6" d="M156.8,61.9L156.8,61.9c0.4-0.8,1.4-1.1,2.2-0.7l10.1,5.2c0.8,0.4,1.1,1.4,0.7,2.2l0,0
	c-0.4,0.8-1.4,1.1-2.2,0.7L157.5,64C156.7,63.6,156.4,62.7,156.8,61.9z"/>
<path class="st2" d="M107.5,126.3L107.5,126.3c0-0.9,0.8-1.6,1.7-1.5l11.4,0.5c0.9,0,1.6,0.8,1.5,1.7v0c0,0.9-0.8,1.6-1.7,1.5
	L109,128C108.1,127.9,107.4,127.2,107.5,126.3z"/>
<path class="st4" d="M110.7,128.3L110.7,128.3c-0.9-0.1-1.5-0.9-1.4-1.8l1.1-11.3c0.1-0.9,0.9-1.5,1.8-1.4v0
	c0.9,0.1,1.5,0.9,1.4,1.8l-1.1,11.3C112.4,127.8,111.6,128.4,110.7,128.3z"/>
<path class="st5" d="M105.5,133.2L105.5,133.2c-0.8,0.3-1.8-0.1-2.1-0.9l-4.2-10.6c-0.3-0.8,0.1-1.8,0.9-2.1h0
	c0.8-0.3,1.8,0.1,2.1,0.9l4.2,10.6C106.7,131.9,106.3,132.9,105.5,133.2z"/>
<path class="st2" d="M89.1,136L89.1,136c-0.6-0.7-0.5-1.7,0.2-2.3l8.8-7.2c0.7-0.6,1.7-0.5,2.3,0.2l0,0c0.6,0.7,0.5,1.7-0.2,2.3
	l-8.8,7.2C90.7,136.8,89.7,136.7,89.1,136z"/>
<path class="st4" d="M90,113.3L90,113.3c0.8-0.4,1.8-0.1,2.2,0.7l5,10.3c0.4,0.8,0.1,1.8-0.7,2.2l0,0c-0.8,0.4-1.8,0.1-2.2-0.7
	l-5-10.3C88.9,114.7,89.2,113.7,90,113.3z"/>
<path class="st6" d="M95,111.7L95,111.7c0.4-0.8,1.4-1.1,2.2-0.7l10.1,5.2c0.8,0.4,1.1,1.4,0.7,2.2l0,0c-0.4,0.8-1.4,1.1-2.2,0.7
	l-10.1-5.2C94.9,113.4,94.6,112.5,95,111.7z"/>
<path class="st3" d="M98.5,144.7L98.5,144.7c-0.7-0.6-0.7-1.6-0.1-2.3l7.6-8.5c0.6-0.7,1.6-0.7,2.3-0.1l0,0c0.7,0.6,0.7,1.6,0.1,2.3
	l-7.6,8.5C100.2,145.2,99.1,145.3,98.5,144.7z"/>
<path class="st4" d="M100.8,110L100.8,110c-0.9-0.1-1.5-0.9-1.4-1.8l1.1-11.3c0.1-0.9,0.9-1.5,1.8-1.4h0c0.9,0.1,1.5,0.9,1.4,1.8
	l-1.1,11.3C102.4,109.4,101.6,110.1,100.8,110z"/>
<path class="st5" d="M95.5,114.9L95.5,114.9c-0.8,0.3-1.8-0.1-2.1-0.9l-4.2-10.6c-0.3-0.8,0.1-1.8,0.9-2.1h0
	c0.8-0.3,1.8,0.1,2.1,0.9l4.2,10.6C96.7,113.7,96.3,114.6,95.5,114.9z"/>
<path class="st2" d="M75.4,100.6L75.4,100.6c0.3-0.8,1.3-1.2,2.1-0.9l10.6,4.3c0.8,0.3,1.2,1.3,0.9,2.1l0,0
	c-0.3,0.8-1.3,1.2-2.1,0.9l-10.6-4.3C75.5,102.3,75.1,101.4,75.4,100.6z"/>
<path class="st4" d="M82.5,88.1L82.5,88.1c0.8-0.4,1.8-0.1,2.2,0.7l5,10.3c0.4,0.8,0.1,1.8-0.7,2.2l0,0c-0.8,0.4-1.8,0.1-2.2-0.7
	l-5-10.3C81.4,89.4,81.7,88.5,82.5,88.1z"/>
<path class="st6" d="M87.5,86.4L87.5,86.4c0.4-0.8,1.4-1.1,2.2-0.7L99.8,91c0.8,0.4,1.1,1.4,0.7,2.2l0,0c-0.4,0.8-1.4,1.1-2.2,0.7
	l-10.1-5.2C87.4,88.2,87.1,87.2,87.5,86.4z"/>
<path class="st2" d="M122.5,73.5L122.5,73.5c-0.9,0-1.6-0.7-1.6-1.6V60.5c0-0.9,0.7-1.6,1.6-1.6l0,0c0.9,0,1.6,0.7,1.6,1.6v11.4
	C124.1,72.8,123.4,73.5,122.5,73.5z"/>
<path class="st3" d="M109.9,77.6L109.9,77.6c-0.7-0.6-0.7-1.6-0.1-2.3l7.6-8.5c0.6-0.7,1.6-0.7,2.3-0.1l0,0c0.7,0.6,0.7,1.6,0.1,2.3
	l-7.6,8.5C111.5,78.1,110.5,78.2,109.9,77.6z"/>
<path class="st4" d="M106.5,73.6L106.5,73.6c-0.9-0.1-1.5-0.9-1.4-1.8l1.1-11.3c0.1-0.9,0.9-1.5,1.8-1.4l0,0
	c0.9,0.1,1.5,0.9,1.4,1.8l-1.1,11.3C108.2,73,107.4,73.7,106.5,73.6z"/>
<path class="st5" d="M108.5,79.1L108.5,79.1c0.2,0.9-0.3,1.7-1.1,2l-11,3c-0.9,0.2-1.7-0.3-2-1.1l0,0c-0.2-0.9,0.3-1.7,1.1-2l11-3
	C107.4,77.8,108.3,78.3,108.5,79.1z"/>
<path class="st2" d="M78.2,76.1L78.2,76.1c0.3-0.8,1.3-1.2,2.1-0.9l10.6,4.3c0.8,0.3,1.2,1.3,0.9,2.1l0,0c-0.3,0.8-1.3,1.2-2.1,0.9
	l-10.6-4.3C78.3,77.8,77.9,76.9,78.2,76.1z"/>
<path class="st4" d="M85.3,63.6L85.3,63.6c0.8-0.4,1.8-0.1,2.2,0.7l5,10.3c0.4,0.8,0.1,1.8-0.7,2.2h0c-0.8,0.4-1.8,0.1-2.2-0.7
	l-5-10.3C84.1,64.9,84.5,63.9,85.3,63.6z"/>
<path class="st6" d="M90.8,62.6L90.8,62.6c0.4-0.8,1.4-1.1,2.2-0.7l10.1,5.2c0.8,0.4,1.1,1.4,0.7,2.2l0,0c-0.4,0.8-1.4,1.1-2.2,0.7
	l-10.1-5.2C90.7,64.4,90.4,63.4,90.8,62.6z"/>
<path class="st3" d="M91.8,59.1L91.8,59.1c-0.1-0.9,0.6-1.7,1.5-1.7l11.4-0.9c0.9-0.1,1.7,0.6,1.7,1.5l0,0c0.1,0.9-0.6,1.7-1.5,1.7
	l-11.4,0.9C92.7,60.7,91.9,60,91.8,59.1z"/>
</svg>
